<svg data-v-423bf9ae="" xmlns="http://www.w3.org/2000/svg" viewBox="0 0 260 90" class="iconLeft"><!----><!----><!----><g data-v-423bf9ae="" id="2712b328-e7db-46b8-8822-28d4d4743559" fill="black" transform="matrix(4.71327589611677,0,0,4.71327589611677,76.3155288524854,-3.47604187237215)"><path d="M6.94 8.69L6.94 8.69Q7.20 9.46 7.20 10.44L7.20 10.44L7.20 10.44Q7.20 11.44 6.96 12.15L6.96 12.15L6.96 12.15Q6.65 13.08 5.96 13.59L5.96 13.59L5.96 13.59Q5.28 14.11 4.26 14.11L4.26 14.11L4.26 14.11Q3.28 14.11 2.66 13.43L2.66 13.43L2.66 13.43Q2.63 13.38 2.60 13.39L2.60 13.39L2.60 13.39Q2.56 13.40 2.56 13.45L2.56 13.45L2.56 16.42L2.56 16.42Q2.56 16.65 2.34 16.65L2.34 16.65L1.16 16.65L1.16 16.65Q0.94 16.65 0.94 16.42L0.94 16.42L0.94 7.07L0.94 7.07Q0.94 6.85 1.16 6.85L1.16 6.85L2.34 6.85L2.34 6.85Q2.56 6.85 2.56 7.07L2.56 7.07L2.56 7.43L2.56 7.43Q2.56 7.49 2.60 7.50L2.60 7.50L2.60 7.50Q2.63 7.52 2.66 7.46L2.66 7.46L2.66 7.46Q3.26 6.73 4.26 6.73L4.26 6.73L4.26 6.73Q5.24 6.73 5.94 7.26L5.94 7.26L5.94 7.26Q6.64 7.78 6.94 8.69L6.94 8.69ZM5.11 12.12L5.11 12.12Q5.52 11.51 5.52 10.42L5.52 10.42L5.52 10.42Q5.52 9.41 5.18 8.82L5.18 8.82L5.18 8.82Q4.82 8.15 4.00 8.15L4.00 8.15L4.00 8.15Q3.30 8.15 2.91 8.81L2.91 8.81L2.91 8.81Q2.59 9.35 2.59 10.43L2.59 10.43L2.59 10.43Q2.59 11.52 2.94 12.10L2.94 12.10L2.94 12.10Q3.32 12.71 3.99 12.71L3.99 12.71L3.99 12.71Q4.72 12.71 5.11 12.12L5.11 12.12ZM11.97 6.76L11.97 6.76Q12.38 6.76 12.71 6.92L12.71 6.92L12.71 6.92Q12.88 7 12.84 7.20L12.84 7.20L12.61 8.36L12.61 8.36Q12.60 8.47 12.54 8.50L12.54 8.50L12.54 8.50Q12.47 8.53 12.35 8.50L12.35 8.50L12.35 8.50Q12.18 8.44 11.90 8.44L11.90 8.44L11.90 8.44Q11.73 8.44 11.63 8.46L11.63 8.46L11.63 8.46Q11.05 8.48 10.65 8.87L10.65 8.87L10.65 8.87Q10.26 9.25 10.26 9.87L10.26 9.87L10.26 13.78L10.26 13.78Q10.26 14 10.04 14L10.04 14L8.86 14L8.86 14Q8.64 14 8.64 13.78L8.64 13.78L8.64 7.07L8.64 7.07Q8.64 6.85 8.86 6.85L8.86 6.85L10.04 6.85L10.04 6.85Q10.26 6.85 10.26 7.07L10.26 7.07L10.26 7.62L10.26 7.62Q10.26 7.67 10.29 7.69L10.29 7.69L10.29 7.69Q10.32 7.70 10.35 7.64L10.35 7.64L10.35 7.64Q10.93 6.76 11.97 6.76L11.97 6.76ZM17.11 12.74L17.11 12.74Q17.63 12.73 18.01 12.52L18.01 12.52L18.01 12.52Q18.40 12.32 18.63 11.97L18.63 11.97L18.63 11.97Q18.70 11.86 18.82 11.86L18.82 11.86L18.82 11.86Q18.89 11.86 18.94 11.90L18.94 11.90L19.61 12.43L19.61 12.43Q19.71 12.53 19.71 12.61L19.71 12.61L19.71 12.61Q19.71 12.67 19.67 12.74L19.67 12.74L19.67 12.74Q19.26 13.38 18.56 13.75L18.56 13.75L18.56 13.75Q17.86 14.11 16.95 14.11L16.95 14.11L16.95 14.11Q15.85 14.11 15.10 13.59L15.10 13.59L15.10 13.59Q14.35 13.06 14.01 12.12L14.01 12.12L14.01 12.12Q13.73 11.35 13.73 10.39L13.73 10.39L13.73 10.39Q13.73 9.42 13.89 8.90L13.89 8.90L13.89 8.90Q14.15 7.91 14.94 7.32L14.94 7.32L14.94 7.32Q15.72 6.73 16.84 6.73L16.84 6.73L16.84 6.73Q19.46 6.73 19.91 9.60L19.91 9.60L19.91 9.60Q19.98 10.07 20.01 10.75L20.01 10.75L20.01 10.75Q20.01 10.98 19.78 10.98L19.78 10.98L15.44 10.98L15.44 10.98Q15.36 10.98 15.36 11.06L15.36 11.06L15.36 11.06Q15.36 11.44 15.44 11.68L15.44 11.68L15.44 11.68Q15.60 12.18 16.03 12.46L16.03 12.46L16.03 12.46Q16.46 12.74 17.11 12.74L17.11 12.74ZM16.83 8.13L16.83 8.13Q16.30 8.13 15.95 8.39L15.95 8.39L15.95 8.39Q15.61 8.65 15.48 9.11L15.48 9.11L15.48 9.11Q15.39 9.39 15.37 9.70L15.37 9.70L15.37 9.70Q15.36 9.79 15.44 9.79L15.44 9.79L18.26 9.79L18.26 9.79Q18.34 9.79 18.34 9.70L18.34 9.70L18.34 9.70Q18.28 9.28 18.26 9.20L18.26 9.20L18.26 9.20Q18.13 8.71 17.76 8.42L17.76 8.42L17.76 8.42Q17.39 8.13 16.83 8.13L16.83 8.13ZM27.57 8.69L27.57 8.69Q27.82 9.46 27.82 10.44L27.82 10.44L27.82 10.44Q27.82 11.44 27.58 12.15L27.58 12.15L27.58 12.15Q27.27 13.08 26.59 13.59L26.59 13.59L26.59 13.59Q25.90 14.11 24.88 14.11L24.88 14.11L24.88 14.11Q23.90 14.11 23.28 13.43L23.28 13.43L23.28 13.43Q23.25 13.38 23.22 13.39L23.22 13.39L23.22 13.39Q23.18 13.40 23.18 13.45L23.18 13.45L23.18 16.42L23.18 16.42Q23.18 16.65 22.96 16.65L22.96 16.65L21.78 16.65L21.78 16.65Q21.56 16.65 21.56 16.42L21.56 16.42L21.56 7.07L21.56 7.07Q21.56 6.85 21.78 6.85L21.78 6.85L22.96 6.85L22.96 6.85Q23.18 6.85 23.18 7.07L23.18 7.07L23.18 7.43L23.18 7.43Q23.18 7.49 23.22 7.50L23.22 7.50L23.22 7.50Q23.25 7.52 23.28 7.46L23.28 7.46L23.28 7.46Q23.88 6.73 24.88 6.73L24.88 6.73L24.88 6.73Q25.86 6.73 26.56 7.26L26.56 7.26L26.56 7.26Q27.26 7.78 27.57 8.69L27.57 8.69ZM25.73 12.12L25.73 12.12Q26.14 11.51 26.14 10.42L26.14 10.42L26.14 10.42Q26.14 9.41 25.80 8.82L25.80 8.82L25.80 8.82Q25.44 8.15 24.63 8.15L24.63 8.15L24.63 8.15Q23.93 8.15 23.53 8.81L23.53 8.81L23.53 8.81Q23.21 9.35 23.21 10.43L23.21 10.43L23.21 10.43Q23.21 11.52 23.56 12.10L23.56 12.10L23.56 12.10Q23.94 12.71 24.61 12.71L24.61 12.71L24.61 12.71Q25.34 12.71 25.73 12.12L25.73 12.12ZM30.18 5.95L30.18 5.95Q29.72 5.95 29.43 5.66L29.43 5.66L29.43 5.66Q29.13 5.38 29.13 4.93L29.13 4.93L29.13 4.93Q29.13 4.48 29.43 4.20L29.43 4.20L29.43 4.20Q29.72 3.92 30.18 3.92L30.18 3.92L30.18 3.92Q30.65 3.92 30.93 4.20L30.93 4.20L30.93 4.20Q31.22 4.48 31.22 4.93L31.22 4.93L31.22 4.93Q31.22 5.38 30.93 5.66L30.93 5.66L30.93 5.66Q30.65 5.95 30.18 5.95L30.18 5.95ZM29.60 14L29.60 14Q29.37 14 29.37 13.78L29.37 13.78L29.37 7.07L29.37 7.07Q29.37 6.85 29.60 6.85L29.60 6.85L30.77 6.85L30.77 6.85Q31.00 6.85 31.00 7.07L31.00 7.07L31.00 13.78L31.00 13.78Q31.00 14 30.77 14L30.77 14L29.60 14ZM35.81 14.11L35.81 14.11Q34.73 14.11 33.95 13.56L33.95 13.56L33.95 13.56Q33.17 13.01 32.86 12.07L32.86 12.07L32.86 12.07Q32.63 11.44 32.63 10.39L32.63 10.39L32.63 10.39Q32.63 9.38 32.86 8.74L32.86 8.74L32.86 8.74Q33.15 7.81 33.94 7.27L33.94 7.27L33.94 7.27Q34.73 6.73 35.81 6.73L35.81 6.73L35.81 6.73Q36.90 6.73 37.72 7.28L37.72 7.28L37.72 7.28Q38.53 7.83 38.79 8.65L38.79 8.65L38.79 8.65Q38.84 8.78 38.88 9.04L38.88 9.04L38.88 9.10L38.88 9.10Q38.88 9.25 38.70 9.30L38.70 9.30L37.53 9.48L37.48 9.48L37.48 9.48Q37.32 9.48 37.28 9.31L37.28 9.31L37.24 9.13L37.24 9.13Q37.14 8.71 36.75 8.42L36.75 8.42L36.75 8.42Q36.36 8.13 35.81 8.13L35.81 8.13L35.81 8.13Q35.28 8.13 34.91 8.41L34.91 8.41L34.91 8.41Q34.54 8.68 34.41 9.16L34.41 9.16L34.41 9.16Q34.27 9.60 34.27 10.40L34.27 10.40L34.27 10.40Q34.27 11.17 34.40 11.65L34.40 11.65L34.40 11.65Q34.54 12.14 34.90 12.43L34.90 12.43L34.90 12.43Q35.27 12.71 35.81 12.71L35.81 12.71L35.81 12.71Q36.34 12.71 36.73 12.44L36.73 12.44L36.73 12.44Q37.11 12.17 37.23 11.72L37.23 11.72L37.24 11.65L37.24 11.65L37.24 11.65Q37.25 11.58 37.33 11.51L37.33 11.51L37.33 11.51Q37.41 11.44 37.51 11.45L37.51 11.45L38.67 11.63L38.67 11.63Q38.85 11.68 38.85 11.83L38.85 11.83L38.85 11.83Q38.85 11.91 38.79 12.17L38.79 12.17L38.79 12.17Q38.53 13.06 37.72 13.59L37.72 13.59L37.72 13.59Q36.90 14.11 35.81 14.11L35.81 14.11Z"></path></g><!----><g data-v-423bf9ae="" id="233cd3fa-998d-4726-90d6-b8957ce2c522" transform="matrix(1,0,0,1,-19.373001098632812,-5)" stroke="none" fill="black"><path d="M31.91 50.385a.964.964 0 0 0 1.229 1.24l9.749-3.441a19.644 19.644 0 0 0 7.819 1.613c10.397 0 18.855-7.951 18.855-17.725 0-9.774-8.459-17.725-18.855-17.725s-18.855 7.951-18.855 17.725c0 3.505 1.089 6.88 3.155 9.797l-3.097 8.516zm27.672-19.651a2.28 2.28 0 1 1 0 4.56 2.28 2.28 0 0 1 0-4.56zm-8.875 0a2.28 2.28 0 1 1 0 4.56 2.28 2.28 0 0 1 0-4.56zm-8.875 0a2.28 2.28 0 1 1 0 4.56 2.28 2.28 0 0 1 0-4.56z"></path><path d="M27.595 63.134c0 8.785 7.147 15.932 15.932 15.932h1.995V95h34.851V34.931c0-7.996-3.115-15.514-8.771-21.167C65.946 8.113 58.428 5 50.43 5h-.87c-7.993 0-15.509 3.112-21.162 8.763-5.656 5.653-8.771 13.171-8.771 21.168v27.702h7.967v.501zm-4.986-3.482V34.931c0-7.201 2.805-13.969 7.897-19.06 5.091-5.088 11.857-7.89 19.053-7.89h.871c7.202 0 13.972 2.802 19.064 7.892 5.092 5.09 7.897 11.858 7.897 19.058v57.088H48.503V76.084h-4.976c-7.141 0-12.95-5.809-12.95-12.95v-3.482h-7.968z"></path></g><!----></svg>